<?xml version="1.0" standalone="no"?>
<!DOCTYPE svg PUBLIC "-//W3C//DTD SVG 20010904//EN"
 "http://www.w3.org/TR/2001/REC-SVG-20010904/DTD/svg10.dtd">
<svg version="1.0" xmlns="http://www.w3.org/2000/svg"
 width="700.000000pt" height="700.000000pt" viewBox="0 0 700.000000 700.000000"
 preserveAspectRatio="xMidYMid meet">
<metadata>
Created by potrace 1.11, written by Peter Selinger 2001-2013
</metadata>
<g transform="translate(0.000000,700.000000) scale(0.100000,-0.100000)"
fill="#000000" stroke="none">
<path d="M60 6913 l-25 -21 -1 -3369 c0 -2711 2 -3373 12 -3394 7 -15 24 -29
36 -33 29 -7 6745 -8 6774 0 51 13 48 -179 48 3425 l0 3370 -22 22 -22 22
-3388 0 -3387 0 -25 -22z m2010 -138 c-5 -11 -29 -72 -55 -135 -124 -305 -260
-771 -310 -1065 -2 -16 -7 -40 -9 -52 -3 -11 -7 -41 -11 -65 -4 -25 -10 -50
-14 -56 -3 -6 -60 -20 -126 -31 -397 -68 -799 -187 -1213 -359 -143 -59 -151
-70 -118 -163 63 -177 243 -548 376 -779 40 -69 129 -210 198 -314 89 -134
123 -192 116 -202 -311 -453 -502 -799 -665 -1201 l-53 -133 20 -26 c32 -43
465 -209 789 -303 126 -36 307 -78 480 -111 94 -18 177 -36 185 -40 13 -6 27
-64 54 -223 5 -27 38 -183 51 -240 42 -183 155 -536 242 -757 113 -285 105
-279 251 -221 375 150 829 396 1149 623 45 32 85 58 89 58 4 0 73 -44 153 -99
320 -216 663 -402 1023 -555 167 -71 195 -75 223 -32 17 27 111 259 158 391
103 291 170 536 228 830 24 121 48 223 53 227 5 3 30 9 55 13 165 23 544 113
761 181 124 39 390 134 443 158 80 37 159 66 165 62 5 -3 8 -1841 3 -1913 -1
-18 -6577 -18 -6583 0 -4 10 -3 6552 1 6552 0 0 428 0 950 0 945 0 949 0 941
-20z m2528 6 c-113 -49 -430 -207 -523 -260 -149 -86 -337 -204 -469 -295
l-108 -75 -72 51 c-108 76 -247 166 -411 265 -11 7 -27 15 -35 19 -8 4 -42 24
-75 44 -52 32 -325 168 -483 241 l-52 24 1130 0 c988 0 1126 -2 1098 -14z
m2162 10 c7 -2 5 -1800 -3 -1807 -3 -4 -73 21 -155 54 -189 78 -528 191 -702
235 -209 53 -340 83 -413 92 -16 2 -40 6 -55 9 -15 3 -43 8 -62 11 -19 4 -38
9 -41 13 -6 6 -20 78 -45 222 -49 277 -198 772 -322 1070 -22 52 -39 97 -37
100 3 4 1818 5 1835 1z m-4410 -143 c317 -137 732 -370 992 -558 l37 -27 -127
-104 c-167 -137 -293 -250 -427 -384 l-110 -110 -165 -1 c-199 -2 -480 -17
-557 -29 -12 -2 -56 -7 -99 -10 l-77 -7 6 23 c3 13 8 42 12 64 44 280 173 731
303 1063 50 128 58 141 77 136 11 -4 72 -29 135 -56z m2471 15 c122 -282 252
-711 322 -1063 35 -174 38 -192 29 -187 -7 5 -67 12 -177 22 -33 3 -74 8 -91
10 -54 8 -303 18 -466 19 l-156 1 -154 150 c-167 164 -235 225 -400 358 -59
49 -108 90 -108 92 0 12 379 252 554 349 180 100 583 292 619 295 4 1 17 -20
28 -46z m-1283 -718 c16 -13 52 -41 79 -62 92 -69 240 -200 369 -325 117 -112
114 -105 39 -107 -35 -1 -72 -4 -82 -5 -10 -2 -54 -7 -98 -10 -44 -4 -91 -9
-105 -11 -154 -24 -249 -34 -270 -30 -37 7 -246 34 -315 40 -33 3 -73 7 -90
10 -16 2 -58 5 -92 6 -35 1 -63 5 -63 9 0 26 557 509 587 510 6 0 25 -11 41
-25z m-960 -624 c3 -1 -91 -114 -108 -131 -13 -13 -170 -212 -214 -272 -27
-37 -75 -85 -105 -107 -31 -22 -65 -47 -76 -55 -11 -9 -50 -40 -86 -69 -93
-73 -157 -127 -198 -164 -20 -18 -39 -33 -42 -33 -10 0 1 366 16 495 1 17 9
86 16 153 14 142 8 135 124 146 73 7 142 14 210 22 22 2 96 7 165 10 69 4 126
7 127 8 1 1 166 -1 171 -3z m2143 -5 c75 -4 147 -8 160 -11 13 -2 58 -6 99
-10 206 -19 219 -21 225 -48 24 -113 60 -736 42 -753 -3 -3 -25 12 -49 34 -59
56 -216 182 -319 258 -68 50 -103 86 -173 179 -49 64 -93 121 -100 128 -6 7
-29 35 -51 62 -51 64 -73 90 -107 127 -16 17 -28 33 -28 37 0 8 103 7 301 -3z
m-1671 -11 c36 -3 81 -7 100 -10 19 -3 60 -7 90 -11 30 -3 69 -8 87 -12 l32
-7 -66 -80 c-86 -105 -189 -253 -270 -390 -36 -60 -67 -112 -69 -114 -1 -2
-56 17 -121 42 -100 38 -332 106 -412 122 -13 2 -26 7 -29 9 -4 5 34 58 100
140 80 100 189 229 232 274 l50 53 105 -6 c59 -3 135 -8 171 -10z m1205 -18
c25 -27 86 -97 189 -217 57 -66 168 -211 164 -215 -2 -2 -15 -6 -28 -8 -73
-14 -282 -75 -398 -118 -74 -27 -135 -49 -137 -49 -2 0 -18 26 -36 58 -41 72
-169 269 -214 331 -40 53 -34 46 -102 130 -29 36 -51 66 -49 68 2 2 23 6 47 9
24 2 78 9 119 14 41 5 116 12 165 16 50 3 91 7 92 8 1 0 37 2 80 3 76 2 79 1
108 -30z m-2609 -94 c-4 -32 -8 -74 -11 -93 -3 -19 -7 -64 -10 -100 -2 -36 -7
-94 -11 -130 -3 -36 -7 -166 -9 -290 l-2 -225 -119 -120 c-135 -136 -306 -328
-409 -458 l-69 -88 -18 23 c-46 59 -194 289 -270 419 -148 253 -369 714 -353
738 14 24 502 199 685 246 8 2 47 13 85 24 68 19 329 78 390 88 17 3 48 9 70
13 22 4 44 8 48 9 5 1 6 -25 3 -56z m3824 33 c142 -26 357 -76 465 -107 223
-65 520 -166 610 -209 11 -5 37 -16 58 -24 l37 -15 -21 -53 c-11 -29 -34 -81
-50 -116 -16 -34 -29 -64 -29 -67 0 -12 -173 -351 -236 -461 -85 -151 -257
-420 -305 -477 -4 -5 -44 38 -90 95 -46 56 -86 105 -89 108 -3 3 -34 39 -70
80 -72 84 -61 72 -230 244 l-125 127 -1 157 c-2 167 -10 371 -19 462 -3 30
-10 96 -15 147 -14 128 -13 135 8 129 9 -2 55 -12 102 -20z m-1942 -48 c159
-187 305 -404 425 -630 l46 -88 -37 17 c-195 85 -284 106 -462 106 -105 0
-155 -5 -225 -22 -93 -22 -241 -77 -251 -92 -3 -5 -10 -9 -15 -9 -19 0 146
296 245 440 46 66 140 191 166 220 12 14 34 40 47 58 14 17 27 32 30 32 2 0
16 -14 31 -32z m3236 -1603 c0 -668 -4 -1218 -7 -1222 -4 -3 -7 -1 -7 6 0 22
-88 218 -179 401 -92 183 -230 424 -312 547 -27 40 -49 76 -49 82 0 5 -4 11
-8 13 -4 2 -33 40 -64 85 l-56 82 72 103 c188 270 400 644 526 933 69 159 81
185 83 185 1 0 2 -547 1 -1215z m-2135 1063 c-9 -40 -24 -98 -33 -128 -20 -75
-104 -312 -113 -321 -5 -4 -28 3 -53 15 -25 12 -76 35 -115 51 -86 35 -97 44
-114 92 -13 34 -76 177 -88 196 -6 10 61 37 199 83 123 41 319 93 329 88 4 -2
-2 -36 -12 -76z m-2159 52 c92 -22 293 -88 370 -121 l48 -21 -47 -101 c-26
-56 -52 -113 -57 -126 -8 -18 -42 -39 -139 -83 -71 -32 -129 -57 -130 -55 -21
31 -102 278 -136 412 -11 44 -22 88 -25 98 -7 22 10 22 116 -3z m-226 -135
c34 -135 68 -240 112 -353 19 -48 30 -89 26 -93 -4 -3 -33 -20 -64 -37 -72
-39 -266 -165 -334 -218 -28 -21 -81 -63 -117 -92 -75 -59 -70 -61 -82 43 -3
28 -8 68 -11 90 -7 59 -12 125 -20 271 l-7 131 99 88 c142 126 357 296 365
287 3 -4 18 -56 33 -117z m2661 36 c80 -63 264 -220 313 -267 l33 -32 -6 -108
c-6 -104 -9 -143 -20 -254 -9 -89 -25 -214 -28 -217 -1 -1 -54 39 -117 88
-128 100 -263 192 -387 263 -46 26 -83 51 -83 56 0 5 8 28 18 52 46 106 129
375 147 471 l7 38 27 -17 c14 -10 58 -42 96 -73z m-1200 -170 c50 -12 131 -41
180 -66 90 -44 211 -131 207 -150 -2 -9 -1202 -16 -1202 -6 0 6 64 61 105 90
198 140 467 190 710 132z m-830 -851 c0 -335 -3 -610 -6 -610 -30 0 -199 270
-199 319 0 6 -4 19 -10 29 -22 38 -39 179 -35 287 2 61 5 117 8 125 2 8 7 33
12 55 19 96 91 244 163 335 27 35 61 70 66 70 1 0 1 -274 1 -610z m1275 591
c0 -3 10 -17 23 -31 87 -95 169 -272 193 -420 10 -64 12 -218 3 -260 -4 -19
-10 -48 -12 -65 -18 -107 -90 -260 -167 -356 -28 -35 -55 -65 -60 -67 -4 -2
-8 271 -8 607 0 515 2 609 14 604 8 -3 14 -8 14 -12z m-2534 -33 c1 -40 13
-201 19 -243 2 -16 7 -59 10 -95 4 -36 13 -97 19 -137 7 -39 12 -82 10 -95 -1
-13 -7 -61 -14 -108 -14 -107 -19 -142 -24 -182 -5 -38 -19 -219 -20 -260 -1
-16 -4 -28 -7 -28 -18 0 -268 276 -405 447 -48 60 -93 115 -101 124 -12 15 -5
29 68 120 82 103 162 198 249 293 80 89 185 196 190 196 3 0 6 -15 6 -32z
m3812 -5 c18 -21 61 -67 96 -103 132 -139 376 -429 376 -449 0 -11 -112 -160
-155 -205 -11 -12 -45 -51 -75 -86 -30 -36 -73 -85 -97 -110 -108 -116 -180
-190 -185 -190 -3 0 -9 50 -13 112 -4 62 -8 119 -10 128 -1 8 -6 42 -9 75 -3
33 -9 76 -11 95 -3 19 -7 49 -9 65 -3 17 -7 51 -11 76 -3 26 -2 73 4 105 12
71 24 165 35 279 6 52 19 216 19 233 0 19 8 15 45 -25z m-2860 -143 c-65 -149
-82 -230 -82 -410 0 -190 26 -306 100 -453 l24 -49 -124 65 c-68 35 -188 107
-267 160 -146 96 -359 260 -359 275 0 19 261 217 408 311 63 40 330 190 339
191 0 0 -17 -41 -39 -90z m1909 44 c125 -67 297 -171 381 -231 115 -82 270
-206 276 -219 5 -13 -140 -133 -280 -231 -123 -86 -227 -149 -361 -220 l-102
-54 36 83 c44 101 60 157 77 268 31 195 0 407 -85 583 -15 31 -24 57 -19 57 4
0 39 -16 77 -36z m-3392 -674 c127 -158 231 -274 400 -448 61 -62 112 -115
114 -117 2 -2 5 -102 6 -222 2 -120 6 -252 9 -293 13 -160 17 -206 21 -235 2
-16 7 -56 10 -87 l7 -57 -38 4 c-139 16 -563 122 -802 201 -209 68 -452 163
-452 177 0 37 264 589 319 665 11 17 21 33 21 36 0 26 300 480 310 469 4 -4
38 -46 75 -93z m4992 -20 c150 -225 255 -405 382 -660 85 -172 186 -399 179
-405 -7 -6 -287 -115 -361 -140 -271 -91 -487 -149 -743 -201 -183 -36 -198
-38 -191 -26 5 7 12 63 23 182 3 36 7 76 9 89 6 36 18 346 19 492 l1 127 80
79 c151 149 317 333 440 486 43 54 81 94 85 90 3 -4 38 -55 77 -113z m-4231
60 c116 -95 335 -245 464 -320 41 -24 76 -44 77 -44 1 -1 -14 -45 -33 -96 -44
-115 -108 -324 -125 -409 -7 -33 -16 -61 -21 -61 -15 0 -294 230 -407 335
l-53 50 6 125 c3 69 8 145 11 170 2 25 9 92 15 150 14 132 17 144 35 128 7 -7
21 -20 31 -28z m3358 -5 c14 -99 32 -287 42 -440 l6 -100 -68 -62 c-168 -149
-381 -323 -397 -323 -3 0 -8 12 -11 28 -4 15 -9 37 -11 50 -19 86 -50 187
-100 327 -25 72 -48 137 -51 145 -5 14 3 20 96 72 72 40 288 190 385 266 55
43 101 78 102 78 1 -1 4 -19 7 -41z m-2608 -464 c32 -15 84 -39 114 -52 61
-26 71 -36 90 -88 7 -20 30 -71 51 -114 l38 -78 -47 -20 c-118 -51 -477 -157
-489 -145 -5 5 41 186 73 289 43 135 85 237 98 237 7 0 39 -13 72 -29z m1897
12 c3 -10 24 -70 47 -133 45 -125 112 -374 101 -377 -3 -2 -49 8 -101 22 -52
14 -105 27 -118 30 -29 7 -303 103 -308 108 -3 2 14 44 37 93 23 49 47 105 54
124 13 38 13 38 155 104 106 50 125 54 133 29z m-393 1 c0 -19 -136 -115 -222
-157 -125 -60 -203 -77 -363 -83 -125 -4 -233 15 -348 61 -74 30 -200 108
-250 155 l-31 29 607 0 c334 0 607 -2 607 -5z m-920 -333 c206 -68 446 -66
650 5 41 15 96 37 123 50 l47 24 -46 -87 c-75 -141 -122 -221 -205 -343 -80
-118 -231 -312 -248 -318 -5 -2 -45 41 -89 95 -137 170 -280 389 -373 574
l-39 80 57 -29 c32 -16 87 -39 123 -51z m-1380 7 c38 -35 148 -124 375 -304
22 -17 74 -76 115 -130 41 -55 77 -101 80 -104 3 -3 22 -26 43 -52 21 -26 43
-53 50 -60 22 -24 103 -123 110 -134 11 -20 -318 -8 -593 21 -25 2 -74 7 -110
11 -36 3 -68 11 -71 17 -4 5 -10 40 -14 76 -3 36 -8 77 -10 91 -2 14 -7 61
-10 105 -3 44 -8 107 -10 140 -9 115 -14 365 -7 365 4 0 27 -19 52 -42z m3451
-91 c-2 -67 -4 -147 -6 -177 -6 -104 -16 -245 -20 -270 -2 -14 -6 -52 -10 -85
-3 -33 -8 -69 -10 -80 -2 -11 -4 -25 -4 -31 -1 -6 -7 -11 -13 -11 -7 0 -38 -3
-68 -7 -227 -26 -343 -34 -567 -41 l-142 -4 110 132 c61 73 143 175 182 227
76 102 86 112 222 215 81 61 231 184 295 242 13 12 26 20 29 18 2 -3 3 -60 2
-128z m-2276 -94 c66 -126 205 -331 322 -475 l62 -77 -27 -5 c-36 -7 -94 -14
-162 -21 -30 -3 -73 -8 -95 -10 -22 -2 -100 -7 -174 -11 -125 -7 -135 -6 -148
12 -8 10 -31 37 -51 59 -21 22 -62 69 -92 105 -30 36 -57 67 -61 70 -24 21
-157 206 -151 211 4 3 48 16 97 28 106 26 306 91 391 125 32 14 61 25 64 26 3
0 14 -17 25 -37z m1165 0 c106 -41 357 -117 423 -129 20 -3 39 -9 42 -13 9
-16 -364 -460 -388 -462 -20 -1 -131 2 -162 6 -16 1 -68 5 -115 9 -47 4 -96 9
-110 11 -14 2 -50 7 -80 10 -30 3 -64 7 -75 10 -11 2 -24 4 -28 4 -5 1 3 16
18 34 122 150 270 364 340 490 29 52 41 67 54 62 9 -4 45 -18 81 -32z m-525
-692 c39 -6 93 -13 120 -16 28 -3 64 -8 80 -10 17 -2 71 -7 120 -11 78 -6 103
-8 149 -13 5 -1 -20 -28 -55 -62 -217 -206 -237 -223 -442 -388 l-88 -71 -61
47 c-95 75 -257 211 -323 272 -145 136 -205 195 -200 199 3 3 21 6 40 8 139 9
267 22 415 43 69 10 136 17 150 15 14 -2 57 -8 95 -13z m-1660 -25 c42 -5 120
-12 240 -22 39 -3 171 -7 294 -9 l224 -4 101 -98 c135 -132 236 -228 276 -261
18 -15 76 -63 129 -107 53 -44 111 -92 129 -106 l33 -26 -158 -105 c-87 -58
-174 -115 -193 -126 -19 -11 -87 -50 -150 -86 -187 -108 -641 -326 -677 -326
-22 0 -175 422 -247 680 -35 126 -90 350 -100 405 -2 17 -9 55 -15 85 -6 30
-13 70 -16 88 l-6 34 48 -6 c26 -3 66 -8 88 -10z m3205 -83 c-61 -342 -164
-702 -298 -1046 -54 -140 -58 -148 -81 -142 -88 22 -536 243 -753 371 -117 70
-373 236 -396 259 -11 10 -3 21 50 61 133 102 339 287 500 447 l99 99 207 3
c194 3 338 9 442 20 25 2 74 7 110 11 36 3 66 7 67 8 1 1 18 3 36 4 l35 2 -18
-97z"/>
</g>
</svg>
