<svg xmlns="http://www.w3.org/2000/svg" xmlns:xlink="http://www.w3.org/1999/xlink" version="1.1" width="600px" height="600px" viewBox="0 0 600 600">
    <g enable-background="new">
        <path transform="matrix(.12,0,0,-.12,0,720)" stroke-width="7" stroke-linecap="round" stroke-linejoin="round" fill="none" stroke="#000000" d="M 3177 3548.67 L 3175 3599.67 L 3169 3649.67 L 3160 3699.67 L 3147 3748.67 L 3130 3796.67 L 3110 3842.67 L 3086 3887.67 L 3059 3930.67 L 3029 3971.67 L 2996 4009.67 L 2960 4045.67 L 2922 4078.67 L 2881 4109.67 L 2838 4136.67 L 2793 4159.67 L 2747 4180.67 L 2699 4196.67 L 2650 4209.67 L 2600 4219.67 L 2550 4224.67 L 2499 4226.67 L 2448 4224.67 L 2398 4219.67 L 2348 4209.67 L 2299 4196.67 L 2251 4180.67 L 2205 4159.67 L 2160 4136.67 L 2117 4109.67 L 2076 4078.67 L 2038 4045.67 L 2002 4009.67 L 1969 3971.67 L 1939 3930.67 L 1912 3887.67 L 1888 3842.67 L 1868 3796.67 L 1851 3748.67 L 1838 3699.67 L 1828 3649.67 L 1823 3599.67 L 1821 3548.67 L 1823 3498.67 L 1828 3447.67 L 1838 3397.67 L 1851 3348.67 L 1868 3301.67 L 1888 3254.67 L 1912 3209.67 L 1939 3166.67 L 1969 3125.67 L 2002 3087.67 L 2038 3051.67 L 2076 3018.67 L 2117 2988.67 L 2160 2961.67 L 2205 2937.67 L 2251 2917.67 L 2299 2900.67 L 2348 2887.67 L 2398 2878.67 L 2448 2872.67 L 2499 2870.67 L 2550 2872.67 L 2600 2878.67 L 2650 2887.67 L 2699 2900.67 L 2747 2917.67 L 2793 2937.67 L 2838 2961.67 L 2881 2988.67 L 2922 3018.67 L 2960 3051.67 L 2996 3087.67 L 3029 3125.67 L 3059 3166.67 L 3086 3209.67 L 3110 3254.67 L 3130 3301.67 L 3147 3348.67 L 3160 3397.67 L 3169 3447.67 L 3175 3498.67 L 3177 3548.67 Z " />
        <path transform="matrix(.12,0,0,-.12,0,720)" stroke-width="7" stroke-linecap="round" stroke-linejoin="round" fill="none" stroke="#000000" d="M 1542 5858.67 L 1491 5738.67 L 1444 5615.67 L 1401 5491.67 L 1362 5366.67 L 1327 5240.67 L 1295 5112.67 L 1269 4984.67 L 1246 4855.67 L 1227 4725.67 L 1213 4594.67 L 1203 4464.67 L 1196 4332.67 L 1195 4201.67 L 1197 4070.67 L 1204 3939.67 L 1214 3808.67 L 1229 3678.67 L 1249 3548.67 " />
        <path transform="matrix(.12,0,0,-.12,0,720)" stroke-width="7" stroke-linecap="round" stroke-linejoin="round" fill="none" stroke="#000000" d="M 3383 4432.67 L 3305 4538.67 L 3223 4640.67 L 3138 4741.67 L 3050 4838.67 L 2959 4932.67 L 2865 5024.67 L 2768 5112.67 L 2669 5197.67 L 2566 5279.67 L 2461 5358.67 L 2354 5433.67 L 2244 5505.67 L 2132 5573.67 L 2018 5638.67 L 1902 5699.67 L 1783 5756.67 L 1664 5809.67 L 1542 5858.67 " />
        <path transform="matrix(.12,0,0,-.12,0,720)" stroke-width="7" stroke-linecap="round" stroke-linejoin="round" fill="none" stroke="#000000" d="M 2499 4799.67 L 2369 4818.67 L 2239 4833.67 L 2108 4844.67 L 1977 4850.67 L 1846 4853.67 L 1715 4851.67 L 1584 4845.67 L 1453 4834.67 L 1322 4820.67 L 1193 4801.67 L 1063 4779.67 L 935 4752.67 L 808 4721.67 L 681 4686.67 L 556 4646.67 L 432 4603.67 L 310 4556.67 L 189 4505.67 L 238 4384.67 L 291 4264.67 L 349 4146.67 L 409 4029.67 L 474 3915.67 L 542 3803.67 L 614 3693.67 L 689 3586.67 L 768 3481.67 L 850 3378.67 L 935 3279.67 L 1023 3182.67 L 1115 3088.67 L 1209 2997.67 L 1307 2909.67 L 1407 2824.67 L 1510 2742.67 L 1615 2664.67 " />
        <path transform="matrix(.12,0,0,-.12,0,720)" stroke-width="7" stroke-linecap="round" stroke-linejoin="round" fill="none" stroke="#000000" d="M 3749 3548.67 L 3768 3678.67 L 3783 3808.67 L 3794 3939.67 L 3801 4070.67 L 3803 4201.67 L 3801 4332.67 L 3795 4464.67 L 3785 4594.67 L 3771 4725.67 L 3752 4855.67 L 3729 4984.67 L 3702 5112.67 L 3671 5240.67 L 3636 5366.67 L 3597 5491.67 L 3554 5615.67 L 3507 5738.67 L 3456 5858.67 L 3334 5809.67 L 3214 5756.67 L 3096 5699.67 L 2980 5638.67 L 2866 5573.67 L 2754 5505.67 L 2644 5433.67 L 2536 5358.67 L 2431 5279.67 L 2329 5197.67 L 2229 5112.67 L 2132 5024.67 L 2038 4932.67 L 1947 4838.67 L 1859 4741.67 L 1775 4640.67 L 1693 4538.67 L 1615 4432.67 " />
        <path transform="matrix(.12,0,0,-.12,0,720)" stroke-width="7" stroke-linecap="round" stroke-linejoin="round" fill="none" stroke="#000000" d="M 4809 4505.67 L 4688 4556.67 L 4566 4603.67 L 4442 4646.67 L 4317 4686.67 L 4190 4721.67 L 4063 4752.67 L 3934 4779.67 L 3805 4801.67 L 3675 4820.67 L 3545 4834.67 L 3414 4845.67 L 3283 4851.67 L 3152 4853.67 L 3021 4850.67 L 2890 4844.67 L 2759 4833.67 L 2629 4818.67 L 2499 4799.67 " />
        <path transform="matrix(.12,0,0,-.12,0,720)" stroke-width="7" stroke-linecap="round" stroke-linejoin="round" fill="none" stroke="#000000" d="M 3383 2664.67 L 3488 2742.67 L 3591 2824.67 L 3691 2909.67 L 3788 2997.67 L 3883 3088.67 L 3974 3182.67 L 4063 3279.67 L 4148 3378.67 L 4230 3481.67 L 4309 3586.67 L 4384 3693.67 L 4456 3803.67 L 4524 3915.67 L 4588 4029.67 L 4649 4146.67 L 4706 4264.67 L 4759 4384.67 L 4809 4505.67 " />
        <path transform="matrix(.12,0,0,-.12,0,720)" stroke-width="7" stroke-linecap="round" stroke-linejoin="round" fill="none" stroke="#000000" d="M 1249 3548.67 L 1229 3418.67 L 1214 3288.67 L 1204 3157.67 L 1197 3026.67 L 1195 2895.67 L 1196 2764.67 L 1203 2633.67 L 1213 2502.67 L 1227 2372.67 L 1246 2242.67 L 1269 2113.67 L 1295 1984.67 L 1327 1857.67 L 1362 1730.67 L 1401 1605.67 L 1444 1481.67 L 1491 1359.67 L 1542 1238.67 L 1664 1287.67 L 1783 1341.67 L 1902 1398.67 L 2018 1459.67 L 2132 1523.67 L 2244 1591.67 L 2354 1663.67 L 2461 1738.67 L 2566 1817.67 L 2669 1899.67 L 2768 1984.67 L 2865 2073.67 L 2959 2164.67 L 3050 2259.67 L 3138 2356.67 L 3223 2456.67 L 3305 2559.67 L 3383 2664.67 " />
        <path transform="matrix(.12,0,0,-.12,0,720)" stroke-width="7" stroke-linecap="round" stroke-linejoin="round" fill="none" stroke="#000000" d="M 189 2591.67 L 310 2540.67 L 432 2493.67 L 556 2450.67 L 681 2411.67 L 808 2376.67 L 935 2345.67 L 1063 2318.67 L 1193 2295.67 L 1322 2276.67 L 1453 2262.67 L 1584 2252.67 L 1715 2246.67 L 1846 2244.67 L 1977 2246.67 L 2108 2253.67 L 2239 2264.67 L 2369 2279.67 L 2499 2298.67 " />
        <path transform="matrix(.12,0,0,-.12,0,720)" stroke-width="7" stroke-linecap="round" stroke-linejoin="round" fill="none" stroke="#000000" d="M 1615 4432.67 L 1510 4354.67 L 1407 4273.67 L 1307 4188.67 L 1209 4100.67 L 1115 4009.67 L 1023 3915.67 L 935 3818.67 L 850 3718.67 L 768 3616.67 L 689 3511.67 L 614 3403.67 L 542 3293.67 L 474 3181.67 L 409 3067.67 L 349 2951.67 L 291 2833.67 L 238 2713.67 L 189 2591.67 " />
        <path transform="matrix(.12,0,0,-.12,0,720)" stroke-width="7" stroke-linecap="round" stroke-linejoin="round" fill="none" stroke="#000000" d="M 3456 1238.67 L 3507 1359.67 L 3554 1481.67 L 3597 1605.67 L 3636 1730.67 L 3671 1857.67 L 3702 1984.67 L 3729 2113.67 L 3752 2242.67 L 3771 2372.67 L 3785 2502.67 L 3795 2633.67 L 3801 2764.67 L 3803 2895.67 L 3801 3026.67 L 3794 3157.67 L 3783 3288.67 L 3768 3418.67 L 3749 3548.67 " />
        <path transform="matrix(.12,0,0,-.12,0,720)" stroke-width="7" stroke-linecap="round" stroke-linejoin="round" fill="none" stroke="#000000" d="M 1615 2664.67 L 1693 2559.67 L 1775 2456.67 L 1859 2356.67 L 1947 2259.67 L 2038 2164.67 L 2132 2073.67 L 2229 1984.67 L 2329 1899.67 L 2431 1817.67 L 2536 1738.67 L 2644 1663.67 L 2754 1591.67 L 2866 1523.67 L 2980 1459.67 L 3096 1398.67 L 3214 1341.67 L 3334 1287.67 L 3456 1238.67 " />
        <path transform="matrix(.12,0,0,-.12,0,720)" stroke-width="7" stroke-linecap="round" stroke-linejoin="round" fill="none" stroke="#000000" d="M 2499 2298.67 L 2629 2279.67 L 2759 2264.67 L 2890 2253.67 L 3021 2246.67 L 3152 2244.67 L 3283 2246.67 L 3414 2252.67 L 3545 2262.67 L 3675 2276.67 L 3805 2295.67 L 3934 2318.67 L 4063 2345.67 L 4190 2376.67 L 4317 2411.67 L 4442 2450.67 L 4566 2493.67 L 4688 2540.67 L 4809 2591.67 L 4759 2713.67 L 4706 2833.67 L 4649 2951.67 L 4588 3067.67 L 4524 3181.67 L 4456 3293.67 L 4384 3403.67 L 4309 3511.67 L 4230 3616.67 L 4148 3718.67 L 4063 3818.67 L 3974 3915.67 L 3883 4009.67 L 3788 4100.67 L 3691 4188.67 L 3591 4273.67 L 3488 4354.67 L 3383 4432.67 " />
        <path transform="matrix(.12,0,0,-.12,0,720)" stroke-width="7" stroke-linecap="round" stroke-linejoin="round" fill="none" stroke="#000000" d="M 2019 4028.67 L 1926 3989.67 L 1834 3947.67 L 1743 3900.67 L 1655 3850.67 L 1569 3797.67 L 1485 3740.67 L 1404 3679.67 L 1325 3615.67 L 1249 3548.67 L 1325 3481.67 L 1404 3417.67 L 1485 3357.67 L 1569 3300.67 L 1655 3246.67 L 1743 3196.67 L 1834 3150.67 L 1926 3107.67 L 2019 3069.67 " />
        <path transform="matrix(.12,0,0,-.12,0,720)" stroke-width="7" stroke-linecap="round" stroke-linejoin="round" fill="none" stroke="#000000" d="M 3749 3548.67 L 3673 3615.67 L 3594 3679.67 L 3513 3740.67 L 3429 3797.67 L 3343 3850.67 L 3254 3900.67 L 3164 3947.67 L 3072 3989.67 L 2978 4028.67 " />
        <path transform="matrix(.12,0,0,-.12,0,720)" stroke-width="7" stroke-linecap="round" stroke-linejoin="round" fill="none" stroke="#000000" d="M 2978 3069.67 L 3072 3107.67 L 3164 3150.67 L 3254 3196.67 L 3343 3246.67 L 3429 3300.67 L 3513 3357.67 L 3594 3417.67 L 3673 3481.67 L 3749 3548.67 " />
        <path transform="matrix(.12,0,0,-.12,0,720)" stroke-width="7" stroke-linecap="round" stroke-linejoin="round" fill="none" stroke="#000000" d="M 2019 3069.67 L 2058 2975.67 L 2101 2883.67 L 2147 2793.67 L 2197 2704.67 L 2250 2618.67 L 2307 2534.67 L 2368 2453.67 L 2432 2374.67 L 2499 2298.67 L 2566 2374.67 L 2630 2453.67 L 2690 2534.67 L 2747 2618.67 L 2801 2704.67 L 2851 2793.67 L 2897 2883.67 L 2940 2975.67 L 2978 3069.67 " />
        <path transform="matrix(.12,0,0,-.12,0,720)" stroke-width="7" stroke-linecap="round" stroke-linejoin="round" fill="none" stroke="#000000" d="M 2499 4799.67 L 2432 4722.67 L 2368 4644.67 L 2307 4562.67 L 2250 4478.67 L 2197 4392.67 L 2147 4304.67 L 2101 4214.67 L 2058 4122.67 L 2019 4028.67 " />
        <path transform="matrix(.12,0,0,-.12,0,720)" stroke-width="7" stroke-linecap="round" stroke-linejoin="round" fill="none" stroke="#000000" d="M 2978 4028.67 L 2940 4122.67 L 2897 4214.67 L 2851 4304.67 L 2801 4392.67 L 2747 4478.67 L 2690 4562.67 L 2630 4644.67 L 2566 4722.67 L 2499 4799.67 " />
        <path transform="matrix(.12,0,0,-.12,0,720)" stroke-width="7" stroke-linecap="round" stroke-linejoin="round" fill="none" stroke="#000000" d="M 1615 4432.67 L 1632 4344.67 L 1653 4256.67 L 1677 4169.67 L 1705 4083.67 L 1737 3999.67 L 1772 3916.67 " />
        <path transform="matrix(.12,0,0,-.12,0,720)" stroke-width="7" stroke-linecap="round" stroke-linejoin="round" fill="none" stroke="#000000" d="M 2132 4275.67 L 2048 4310.67 L 1964 4342.67 L 1878 4370.67 L 1791 4394.67 L 1703 4415.67 L 1615 4432.67 " />
        <path transform="matrix(.12,0,0,-.12,0,720)" stroke-width="7" stroke-linecap="round" stroke-linejoin="round" fill="none" stroke="#000000" d="M 3226 3916.67 L 3261 3999.67 L 3292 4083.67 L 3321 4169.67 L 3345 4256.67 L 3366 4344.67 L 3383 4432.67 L 3294 4415.67 L 3206 4394.67 L 3120 4370.67 L 3034 4342.67 L 2949 4310.67 L 2866 4275.67 " />
        <path transform="matrix(.12,0,0,-.12,0,720)" stroke-width="7" stroke-linecap="round" stroke-linejoin="round" fill="none" stroke="#000000" d="M 1772 3181.67 L 1737 3098.67 L 1705 3013.67 L 1677 2927.67 L 1653 2841.67 L 1632 2753.67 L 1615 2664.67 L 1703 2681.67 L 1791 2702.67 L 1878 2727.67 L 1964 2755.67 L 2048 2786.67 L 2132 2821.67 " />
        <path transform="matrix(.12,0,0,-.12,0,720)" stroke-width="7" stroke-linecap="round" stroke-linejoin="round" fill="none" stroke="#000000" d="M 3383 2664.67 L 3366 2753.67 L 3345 2841.67 L 3321 2927.67 L 3292 3013.67 L 3261 3098.67 L 3226 3181.67 " />
        <path transform="matrix(.12,0,0,-.12,0,720)" stroke-width="7" stroke-linecap="round" stroke-linejoin="round" fill="none" stroke="#000000" d="M 2866 2821.67 L 2949 2786.67 L 3034 2755.67 L 3120 2727.67 L 3206 2702.67 L 3294 2681.67 L 3383 2664.67 " />
        
        <path transform="matrix(.12,0,0,-.12,0,720)" stroke-width="6" stroke-linecap="round" stroke-linejoin="round" fill="none" stroke="#000000" d="M 75 1115.67 L 4881 1115.67 L 4881 5903.67 L 75 5903.67 Z " />
    </g>
</svg>
