
<?xml version="1.0" encoding="UTF-8" standalone="no"?>
<svg xmlns="http://www.w3.org/2000/svg" xmlns:xlink="http://www.w3.org/1999/xlink" version="1.1" width="716pt" height="716pt" viewBox="-100 140 820 800">
    <g transform="matrix(.12,0,0,-.12,0,842)" stroke="#000000" stroke-width="10" stroke-linecap="round" stroke-linejoin="round" fill="none">
        <g>
            <!-- rect 
                cx = 2521 = (2013 + 3029)/2
                cy = 2537.67 = (2079.67 + 2995.67)/2
            -->
            <path id="rect1" d="M 2113 2079.67 L 3029 2079.67 L 3029 2995.67 L 2113 2995.67 Z " onclick="(e) => console.log(e)" />

            <!-- circle 
                min x 1914
                max X 3228
                min y 1880.67 
                max Y 3194.67 
                cx = 2571 = (1914 + 3228)/2
                cy = 2537.67 = (1880.67  + 3194.67)/2
            -->
            <path id="circle1" d="M 3228 2537.67 L 3226 2588.67 L 3220 2640.67 L 3210 2690.67 L 3196 2740.67 L 3178 2788.67 L 3157 2835.67 L 3131 2880.67 L 3103 2923.67 L 3071 2964.67 L 3036 3002.67 L 2998 3037.67 L 2957 3069.67 L 2914 3097.67 L 2869 3123.67 L 2823 3144.67 L 2774 3162.67 L 2724 3176.67 L 2674 3186.67 L 2623 3192.67 L 2571 3194.67 L 2519 3192.67 L 2468 3186.67 L 2418 3176.67 L 2368 3162.67 L 2320 3144.67 L 2273 3123.67 L 2228 3097.67 L 2185 3069.67 L 2144 3037.67 L 2106 3002.67 L 2071 2964.67 L 2039 2923.67 L 2011 2880.67 L 1985 2835.67 L 1964 2788.67 L 1946 2740.67 L 1932 2690.67 L 1922 2640.67 L 1916 2588.67 L 1914 2537.67 L 1916 2485.67 L 1922 2434.67 L 1932 2383.67 L 1946 2334.67 L 1964 2285.67 L 1985 2238.67 L 2011 2193.67 L 2039 2151.67 L 2071 2110.67 L 2106 2072.67 L 2144 2037.67 L 2185 2005.67 L 2228 1976.67 L 2273 1951.67 L 2320 1930.67 L 2368 1912.67 L 2418 1898.67 L 2468 1888.67 L 2519 1882.67 L 2571 1880.67 L 2623 1882.67 L 2674 1888.67 L 2724 1898.67 L 2774 1912.67 L 2823 1930.67 L 2869 1951.67 L 2914 1976.67 L 2957 2005.67 L 2998 2037.67 L 3036 2072.67 L 3071 2110.67 L 3103 2151.67 L 3131 2193.67 L 3157 2238.67 L 3178 2285.67 L 3196 2334.67 L 3210 2383.67 L 3220 2434.67 L 3226 2485.67 L 3228 2537.67 Z " />
            
            <!-- first star 
            -->
            <g id="firstStar"> 
                <path id="fs1" d="M 3783 2537.67 L 3709 2602.67 L 3633 2664.67 L 3554 2722.67 L 3472 2778.67 L 3389 2830.67 L 3303 2878.67 L 3216 2923.67 L 3127 2964.67 L 3036 3002.67 " />
                <path id="fs2" d="M 3036 2072.67 L 3127 2110.67 L 3216 2151.67 L 3303 2196.67 L 3389 2244.67 L 3472 2296.67 L 3554 2351.67 L 3633 2410.67 L 3709 2472.67 L 3783 2537.67 " />
                <path id="fs3" d="M 2106 2072.67 L 2144 1981.67 L 2185 1892.67 L 2230 1804.67 L 2278 1719.67 L 2330 1635.67 L 2386 1554.67 L 2444 1475.67 L 2506 1399.67 L 2571 1325.67 L 2636 1399.67 L 2698 1475.67 L 2757 1554.67 L 2812 1635.67 L 2864 1719.67 L 2912 1804.67 L 2957 1892.67 L 2998 1981.67 L 3036 2072.67 " />
                <path id="fs4" d="M 2106 3002.67 L 2015 2964.67 L 1926 2923.67 L 1839 2878.67 L 1753 2830.67 L 1670 2778.67 L 1588 2722.67 L 1509 2664.67 L 1433 2602.67 L 1359 2537.67 L 1433 2472.67 L 1509 2410.67 L 1588 2351.67 L 1670 2296.67 L 1753 2244.67 L 1839 2196.67 L 1926 2151.67 L 2015 2110.67 L 2106 2072.67 " />
                <path id="fs5" d="M 2571 3749.67 L 2506 3675.67 L 2444 3599.67 L 2386 3520.67 L 2330 3438.67 L 2278 3355.67 L 2230 3269.67 L 2185 3182.67 L 2144 3093.67 L 2106 3002.67 " />
                <path id="fs6" d="M 3036 3002.67 L 2998 3093.67 L 2957 3182.67 L 2912 3269.67 L 2864 3355.67 L 2812 3438.67 L 2757 3520.67 L 2698 3599.67 L 2636 3675.67 L 2571 3749.67 " />
            </g>

            <!-- second star 
            --> 
            <g id="secondStar">
                <path id="ss1" d="M 3276 2893.67 L 3310 2974.67 L 3340 3055.67 L 3367 3139.67 L 3391 3223.67 L 3411 3308.67 L 3428 3394.67 L 3342 3377.67 L 3257 3357.67 L 3173 3333.67 L 3090 3306.67 L 3008 3276.67 L 2927 3242.67 " />
                <path id="ss2" d="M 3428 1680.67 L 3411 1766.67 L 3391 1851.67 L 3367 1935.67 L 3340 2018.67 L 3310 2100.67 L 3276 2181.67 " />
                <path id="ss3" d="M 2927 1832.67 L 3008 1798.67 L 3090 1768.67 L 3173 1740.67 L 3257 1717.67 L 3342 1697.67 L 3428 1680.67 " />
                <path id="ss4" d="M 1866 2181.67 L 1832 2100.67 L 1802 2018.67 L 1775 1935.67 L 1751 1851.67 L 1731 1766.67 L 1714 1680.67 L 1800 1697.67 L 1885 1717.67 L 1969 1740.67 L 2053 1768.67 L 2134 1798.67 L 2215 1832.67 " />
                <path id="ss5" d="M 1714 3394.67 L 1731 3308.67 L 1751 3223.67 L 1775 3139.67 L 1802 3055.67 L 1832 2974.67 L 1866 2893.67 " />
                <path id="ss6" d="M 2215 3242.67 L 2134 3276.67 L 2053 3306.67 L 1969 3333.67 L 1885 3357.67 L 1800 3377.67 L 1714 3394.67 " />
            </g>

            <!-- third star
            -->
            <g id="thirdStar">
                <path id="ts1"  d="M 4810 3464.67 L 4693 3514.67 L 4574 3560.67 L 4454 3601.67 L 4333 3639.67 L 4210 3673.67 L 4087 3703.67 L 3962 3730.67 L 3837 3752.67 L 3711 3770.67 L 3585 3784.67 L 3458 3794.67 L 3331 3799.67 L 3204 3801.67 L 3077 3799.67 L 2950 3792.67 L 2823 3782.67 L 2697 3767.67 L 2571 3749.67 " />
                <path id="ts2"  d="M 3428 1680.67 L 3530 1756.67 L 3630 1835.67 L 3727 1917.67 L 3821 2002.67 L 3912 2091.67 L 4001 2182.67 L 4087 2276.67 L 4169 2372.67 L 4249 2472.67 L 4325 2573.67 L 4398 2678.67 L 4468 2784.67 L 4534 2893.67 L 4596 3003.67 L 4655 3116.67 L 4711 3230.67 L 4762 3347.67 L 4810 3464.67 " />
                <path id="ts3"  d="M 1359 2537.67 L 1341 2411.67 L 1326 2285.67 L 1316 2158.67 L 1309 2031.67 L 1307 1904.67 L 1309 1777.67 L 1315 1650.67 L 1324 1523.67 L 1338 1397.67 L 1356 1271.67 L 1379 1145.67 L 1405 1021.67 L 1435 897.668 L 1469 775.668 L 1507 653.668 L 1548 533.668 L 1594 415.668 L 1644 298.668 L 1761 345.668 L 1878 397.668 L 1992 452.668 L 2105 511.668 L 2215 574.668 L 2324 640.668 L 2430 710.668 L 2535 783.668 L 2636 859.668 L 2736 938.668 L 2832 1021.67 L 2926 1107.67 L 3017 1195.67 L 3106 1287.67 L 3191 1381.67 L 3273 1478.67 L 3352 1578.67 L 3428 1680.67 " />
                <path id="ts4"  d="M 1644 4776.67 L 1594 4659.67 L 1548 4540.67 L 1507 4420.67 L 1469 4299.67 L 1435 4176.67 L 1405 4053.67 L 1379 3928.67 L 1356 3803.67 L 1338 3677.67 L 1324 3551.67 L 1315 3424.67 L 1309 3297.67 L 1307 3170.67 L 1309 3043.67 L 1316 2916.67 L 1326 2789.67 L 1341 2663.67 L 1359 2537.67 " />
                <path id="ts5"  d="M 3428 3394.67 L 3352 3496.67 L 3273 3596.67 L 3191 3693.67 L 3106 3787.67 L 3017 3879.67 L 2926 3967.67 L 2832 4053.67 L 2736 4136.67 L 2636 4215.67 L 2535 4291.67 L 2430 4364.67 L 2324 4434.67 L 2215 4500.67 L 2105 4562.67 L 1992 4621.67 L 1878 4677.67 L 1761 4728.67 L 1644 4776.67 " />
                <path id="ts6"  d="M 2571 1325.67 L 2697 1306.67 L 2823 1292.67 L 2950 1281.67 L 3077 1275.67 L 3204 1273.67 L 3331 1274.67 L 3458 1280.67 L 3585 1290.67 L 3711 1304.67 L 3837 1322.67 L 3962 1344.67 L 4087 1370.67 L 4210 1400.67 L 4333 1434.67 L 4454 1472.67 L 4574 1514.67 L 4693 1560.67 L 4810 1609.67 L 4762 1727.67 L 4711 1843.67 L 4655 1958.67 L 4596 2071.67 L 4534 2181.67 L 4468 2290.67 L 4398 2396.67 L 4325 2500.67 L 4249 2602.67 L 4169 2702.67 L 4087 2798.67 L 4001 2892.67 L 3912 2983.67 L 3821 3072.67 L 3727 3157.67 L 3630 3239.67 L 3530 3318.67 L 3428 3394.67 " />
                <path id="ts7"  d="M 332 1609.67 L 449 1560.67 L 568 1514.67 L 688 1472.67 L 809 1434.67 L 932 1400.67 L 1055 1370.67 L 1180 1344.67 L 1305 1322.67 L 1431 1304.67 L 1557 1290.67 L 1684 1280.67 L 1811 1274.67 L 1938 1273.67 L 2065 1275.67 L 2192 1281.67 L 2319 1292.67 L 2445 1306.67 L 2571 1325.67 " />
                <path id="ts8"  d="M 1714 3394.67 L 1612 3318.67 L 1512 3239.67 L 1415 3157.67 L 1321 3072.67 L 1230 2983.67 L 1141 2892.67 L 1055 2798.67 L 973 2702.67 L 893 2602.67 L 817 2500.67 L 744 2396.67 L 674 2290.67 L 608 2181.67 L 546 2071.67 L 487 1958.67 L 431 1843.67 L 380 1727.67 L 332 1609.67 " />
                <path id="ts9"  d="M 3783 2537.67 L 3801 2663.67 L 3816 2789.67 L 3826 2916.67 L 3833 3043.67 L 3835 3170.67 L 3833 3297.67 L 3828 3424.67 L 3818 3551.67 L 3804 3677.67 L 3786 3803.67 L 3764 3928.67 L 3737 4053.67 L 3707 4176.67 L 3673 4299.67 L 3635 4420.67 L 3594 4540.67 L 3548 4659.67 L 3498 4776.67 L 3381 4728.67 L 3264 4677.67 L 3150 4621.67 L 3037 4562.67 L 2927 4500.67 L 2818 4434.67 L 2712 4364.67 L 2607 4291.67 L 2506 4215.67 L 2406 4136.67 L 2310 4053.67 L 2216 3967.67 L 2125 3879.67 L 2036 3787.67 L 1951 3693.67 L 1869 3596.67 L 1790 3496.67 L 1714 3394.67 " />
                <path id="ts10" d="M 3498 298.668 L 3548 415.668 L 3594 533.668 L 3635 653.668 L 3673 775.668 L 3707 897.668 L 3737 1021.67 L 3764 1145.67 L 3786 1271.67 L 3804 1397.67 L 3818 1523.67 L 3828 1650.67 L 3833 1777.67 L 3835 1904.67 L 3833 2031.67 L 3826 2158.67 L 3816 2285.67 L 3801 2411.67 L 3783 2537.67 " />
                <path id="ts11" d="M 1714 1680.67 L 1790 1578.67 L 1869 1478.67 L 1951 1381.67 L 2036 1287.67 L 2125 1195.67 L 2216 1107.67 L 2310 1021.67 L 2406 938.668 L 2506 859.668 L 2607 783.668 L 2712 710.668 L 2818 640.668 L 2927 574.668 L 3037 511.668 L 3150 452.668 L 3264 397.668 L 3381 345.668 L 3498 298.668 " />
                <path id="ts12" d="M 2571 3749.67 L 2445 3767.67 L 2319 3782.67 L 2192 3792.67 L 2065 3799.67 L 1938 3801.67 L 1811 3799.67 L 1684 3794.67 L 1557 3784.67 L 1431 3770.67 L 1305 3752.67 L 1180 3730.67 L 1055 3703.67 L 932 3673.67 L 809 3639.67 L 688 3601.67 L 568 3560.67 L 449 3514.67 L 332 3464.67 L 380 3347.67 L 431 3230.67 L 487 3116.67 L 546 3003.67 L 608 2893.67 L 674 2784.67 L 744 2678.67 L 817 2573.67 L 893 2472.67 L 973 2372.67 L 1055 2276.67 L 1141 2182.67 L 1230 2091.67 L 1321 2002.67 L 1415 1917.67 L 1512 1835.67 L 1612 1756.67 L 1714 1680.67 " />
            </g>
                
            <!--
                keyPoints="1;0" keyTimes="0;1" calcMode="linear" 
           -->
            <g>
                <!-- https://www.svgrepo.com/svg/59992/gear -->
                <g transform="translate(-145.5 -145.5)" stroke-width="0" fill="#588bae">
                    <circle r="120" style="fill:white" cx="145.5" cy="145.5"/>
                    <path d="M148.5,81.888c-36.73,0-66.612,29.882-66.612,66.612s29.882,66.612,66.612,66.612s66.612-29.882,66.612-66.612
                        S185.23,81.888,148.5,81.888z M148.5,194.927c-25.599,0-46.427-20.827-46.427-46.427s20.827-46.427,46.427-46.427
                        s46.427,20.827,46.427,46.427S174.099,194.927,148.5,194.927z"/>
                    <path d="M148.5,113.428c-19.339,0-35.072,15.733-35.072,35.072s15.733,35.072,35.072,35.072s35.072-15.733,35.072-35.072
                        S167.839,113.428,148.5,113.428z M148.5,163.387c-8.208,0-14.887-6.679-14.887-14.887s6.679-14.887,14.887-14.887
                        s14.887,6.679,14.887,14.887S156.708,163.387,148.5,163.387z"/>

                    <path d="M288.789,182.326l-18.21-10.514c1.454-7.658,2.188-15.469,2.188-23.313s-0.734-15.655-2.188-23.313l18.21-10.514
                        c2.318-1.338,4.009-3.542,4.702-6.129c0.693-2.585,0.33-5.34-1.008-7.658l-30.757-53.273c-2.787-4.826-8.955-6.48-13.787-3.694
                        l-18.234,10.526c-11.872-10.249-25.607-18.192-40.355-23.332V10.093C189.35,4.519,184.831,0,179.257,0h-61.514
                        c-5.574,0-10.093,4.519-10.093,10.093v21.022c-14.748,5.14-28.483,13.082-40.355,23.332L49.061,43.92
                        c-4.829-2.788-11.001-1.133-13.787,3.694L4.517,100.887c-1.338,2.318-1.701,5.073-1.008,7.658c0.693,2.586,2.384,4.79,4.702,6.129
                        l18.21,10.514c-1.454,7.658-2.188,15.469-2.188,23.313s0.734,15.655,2.188,23.313l-18.21,10.514
                        c-2.318,1.338-4.009,3.542-4.702,6.129c-0.693,2.585-0.33,5.34,1.008,7.658l30.757,53.273c2.787,4.827,8.957,6.482,13.787,3.694
                        l18.234-10.526c11.872,10.249,25.607,18.192,40.355,23.332v21.022c0,5.574,4.519,10.093,10.093,10.093h61.514
                        c5.574,0,10.093-4.519,10.093-10.093v-21.022c14.748-5.14,28.483-13.082,40.355-23.332l18.234,10.526
                        c4.83,2.787,11.001,1.132,13.787-3.694l30.757-53.273c1.338-2.318,1.701-5.073,1.008-7.658
                        C292.798,185.869,291.107,183.665,288.789,182.326z M249.345,122.645c2.147,8.404,3.236,17.103,3.236,25.855
                        s-1.089,17.45-3.236,25.855c-1.121,4.384,0.814,8.977,4.732,11.239l15.878,9.167l-20.664,35.792l-15.908-9.184
                        c-3.921-2.262-8.87-1.64-12.104,1.526c-12.514,12.244-27.984,21.187-44.735,25.863c-4.362,1.217-7.379,5.192-7.379,9.721v18.336
                        h-41.329v-18.336c0-4.529-3.017-8.504-7.379-9.721c-16.752-4.676-32.221-13.618-44.735-25.863
                        c-3.237-3.166-8.186-3.788-12.104-1.526l-15.908,9.184l-20.664-35.792l15.878-9.167c3.918-2.262,5.853-6.855,4.732-11.239
                        c-2.147-8.404-3.236-17.103-3.236-25.855s1.089-17.45,3.236-25.855c1.121-4.384-0.814-8.977-4.732-11.239l-15.878-9.167
                        l20.664-35.792l15.908,9.184c3.922,2.263,8.87,1.64,12.104-1.526c12.514-12.244,27.984-21.187,44.735-25.863
                        c4.362-1.217,7.379-5.192,7.379-9.721V20.185h41.329v18.336c0,4.529,3.017,8.504,7.379,9.721
                        c16.752,4.676,32.221,13.618,44.735,25.863c3.238,3.167,8.186,3.789,12.104,1.526l15.908-9.184l20.664,35.792l-15.878,9.167
                        C250.16,113.668,248.225,118.261,249.345,122.645z"/>
                    </g>
                    <!-- 
                    -->
                    <animateTransform attributeName="transform" attributeType="XML" type="rotate" from="0 0 0" to="360 0 0 " dur="2s" repeatCount="16"/> 
                    <animateMotion id="qwe1"  dur="4s" repeatCount="1" begin="0"         ><mpath xlink:href="#ts12" /></animateMotion>
                    <animateMotion id="qwe2"  dur="2s" repeatCount="1" begin="qwe1.end"  ><mpath xlink:href="#ts11" /></animateMotion>
                    <animateMotion id="qwe3"  dur="2s" repeatCount="1" begin="qwe2.end"  ><mpath xlink:href="#ts10" /></animateMotion>
                    <animateMotion id="qwe4"  dur="4s" repeatCount="1" begin="qwe3.end"  ><mpath xlink:href="#ts9" /></animateMotion>
                    <animateMotion id="qwe5"  dur="2s" repeatCount="1" begin="qwe4.end"  ><mpath xlink:href="#ts8" /></animateMotion>
                    <animateMotion id="qwe6"  dur="2s" repeatCount="1" begin="qwe5.end"  ><mpath xlink:href="#ts7" /></animateMotion>
                    <animateMotion id="qwe7"  dur="4s" repeatCount="1" begin="qwe6.end"  ><mpath xlink:href="#ts6" /></animateMotion>
                    <animateMotion id="qwe8"  dur="2s" repeatCount="1" begin="qwe7.end"  ><mpath xlink:href="#ts5" /></animateMotion>
                    <animateMotion id="qwe9"  dur="2s" repeatCount="1" begin="qwe8.end"  ><mpath xlink:href="#ts4" /></animateMotion>
                    <animateMotion id="qwe10" dur="4s" repeatCount="1" begin="qwe9.end"  ><mpath xlink:href="#ts3"/></animateMotion>
                    <animateMotion id="qwe11" dur="2s" repeatCount="1" begin="qwe10.end" ><mpath xlink:href="#ts2"/></animateMotion>
                    <animateMotion id="qwe12" dur="2s" repeatCount="1" begin="qwe11.end" ><mpath xlink:href="#ts1"/></animateMotion>
                    <!-- 
                -->
            </g>
            <animateTransform attributeName="transform" attributeType="XML" type="rotate" from="360 2571 2521" to="0 2571 2537.67" dur="10.8s" repeatCount="3"/>
        </g>
            
    </g>
        
</svg>
