<?xml version="1.0" encoding="UTF-8" standalone="no"?>
<!DOCTYPE svg PUBLIC "-//W3C//DTD SVG 1.1//EN" "http://www.w3.org/Graphics/SVG/1.1/DTD/svg11.dtd">
<svg xmlns="http://www.w3.org/2000/svg" xmlns:xlink="http://www.w3.org/1999/xlink" version="1.1" width="716pt" height="716pt" viewBox="20 260 580 560">
    <!--  -->
<g enable-background="new">
<path transform="matrix(.12,0,0,-.12,0,842)" stroke-width="30" stroke-linecap="round" stroke-linejoin="round" fill="none" stroke="#000000" d="M 3228 2537.67 L 3226 2588.67 L 3220 2640.67 L 3210 2690.67 L 3196 2740.67 L 3178 2788.67 L 3157 2835.67 L 3131 2880.67 L 3103 2923.67 L 3071 2964.67 L 3036 3002.67 L 2998 3037.67 L 2957 3069.67 L 2914 3097.67 L 2869 3123.67 L 2823 3144.67 L 2774 3162.67 L 2724 3176.67 L 2674 3186.67 L 2623 3192.67 L 2571 3194.67 L 2519 3192.67 L 2468 3186.67 L 2418 3176.67 L 2368 3162.67 L 2320 3144.67 L 2273 3123.67 L 2228 3097.67 L 2185 3069.67 L 2144 3037.67 L 2106 3002.67 L 2071 2964.67 L 2039 2923.67 L 2011 2880.67 L 1985 2835.67 L 1964 2788.67 L 1946 2740.67 L 1932 2690.67 L 1922 2640.67 L 1916 2588.67 L 1914 2537.67 L 1916 2485.67 L 1922 2434.67 L 1932 2383.67 L 1946 2334.67 L 1964 2285.67 L 1985 2238.67 L 2011 2193.67 L 2039 2151.67 L 2071 2110.67 L 2106 2072.67 L 2144 2037.67 L 2185 2005.67 L 2228 1976.67 L 2273 1951.67 L 2320 1930.67 L 2368 1912.67 L 2418 1898.67 L 2468 1888.67 L 2519 1882.67 L 2571 1880.67 L 2623 1882.67 L 2674 1888.67 L 2724 1898.67 L 2774 1912.67 L 2823 1930.67 L 2869 1951.67 L 2914 1976.67 L 2957 2005.67 L 2998 2037.67 L 3036 2072.67 L 3071 2110.67 L 3103 2151.67 L 3131 2193.67 L 3157 2238.67 L 3178 2285.67 L 3196 2334.67 L 3210 2383.67 L 3220 2434.67 L 3226 2485.67 L 3228 2537.67 Z "/>
<path transform="matrix(.12,0,0,-.12,0,842)" stroke-width="30" stroke-linecap="round" stroke-linejoin="round" fill="none" stroke="#000000" d="M 1644 4776.67 L 1594 4659.67 L 1548 4540.67 L 1507 4420.67 L 1469 4299.67 L 1435 4176.67 L 1405 4053.67 L 1379 3928.67 L 1356 3803.67 L 1338 3677.67 L 1324 3551.67 L 1315 3424.67 L 1309 3297.67 L 1307 3170.67 L 1309 3043.67 L 1316 2916.67 L 1326 2789.67 L 1341 2663.67 L 1359 2537.67 "/>
<path transform="matrix(.12,0,0,-.12,0,842)" stroke-width="30" stroke-linecap="round" stroke-linejoin="round" fill="none" stroke="#000000" d="M 3428 3394.67 L 3352 3496.67 L 3273 3596.67 L 3191 3693.67 L 3106 3787.67 L 3017 3879.67 L 2926 3967.67 L 2832 4053.67 L 2736 4136.67 L 2636 4215.67 L 2535 4291.67 L 2430 4364.67 L 2324 4434.67 L 2215 4500.67 L 2105 4562.67 L 1992 4621.67 L 1878 4677.67 L 1761 4728.67 L 1644 4776.67 "/>
<path transform="matrix(.12,0,0,-.12,0,842)" stroke-width="30" stroke-linecap="round" stroke-linejoin="round" fill="none" stroke="#000000" d="M 2571 3749.67 L 2445 3767.67 L 2319 3782.67 L 2192 3792.67 L 2065 3799.67 L 1938 3801.67 L 1811 3799.67 L 1684 3794.67 L 1557 3784.67 L 1431 3770.67 L 1305 3752.67 L 1180 3730.67 L 1055 3703.67 L 932 3673.67 L 809 3639.67 L 688 3601.67 L 568 3560.67 L 449 3514.67 L 332 3464.67 L 380 3347.67 L 431 3230.67 L 487 3116.67 L 546 3003.67 L 608 2893.67 L 674 2784.67 L 744 2678.67 L 817 2573.67 L 893 2472.67 L 973 2372.67 L 1055 2276.67 L 1141 2182.67 L 1230 2091.67 L 1321 2002.67 L 1415 1917.67 L 1512 1835.67 L 1612 1756.67 L 1714 1680.67 "/>
<path transform="matrix(.12,0,0,-.12,0,842)" stroke-width="30" stroke-linecap="round" stroke-linejoin="round" fill="none" stroke="#000000" d="M 3783 2537.67 L 3801 2663.67 L 3816 2789.67 L 3826 2916.67 L 3833 3043.67 L 3835 3170.67 L 3833 3297.67 L 3828 3424.67 L 3818 3551.67 L 3804 3677.67 L 3786 3803.67 L 3764 3928.67 L 3737 4053.67 L 3707 4176.67 L 3673 4299.67 L 3635 4420.67 L 3594 4540.67 L 3548 4659.67 L 3498 4776.67 L 3381 4728.67 L 3264 4677.67 L 3150 4621.67 L 3037 4562.67 L 2927 4500.67 L 2818 4434.67 L 2712 4364.67 L 2607 4291.67 L 2506 4215.67 L 2406 4136.67 L 2310 4053.67 L 2216 3967.67 L 2125 3879.67 L 2036 3787.67 L 1951 3693.67 L 1869 3596.67 L 1790 3496.67 L 1714 3394.67 "/>
<path transform="matrix(.12,0,0,-.12,0,842)" stroke-width="30" stroke-linecap="round" stroke-linejoin="round" fill="none" stroke="#000000" d="M 4810 3464.67 L 4693 3514.67 L 4574 3560.67 L 4454 3601.67 L 4333 3639.67 L 4210 3673.67 L 4087 3703.67 L 3962 3730.67 L 3837 3752.67 L 3711 3770.67 L 3585 3784.67 L 3458 3794.67 L 3331 3799.67 L 3204 3801.67 L 3077 3799.67 L 2950 3792.67 L 2823 3782.67 L 2697 3767.67 L 2571 3749.67 "/>
<path transform="matrix(.12,0,0,-.12,0,842)" stroke-width="30" stroke-linecap="round" stroke-linejoin="round" fill="none" stroke="#000000" d="M 3428 1680.67 L 3530 1756.67 L 3630 1835.67 L 3727 1917.67 L 3821 2002.67 L 3912 2091.67 L 4001 2182.67 L 4087 2276.67 L 4169 2372.67 L 4249 2472.67 L 4325 2573.67 L 4398 2678.67 L 4468 2784.67 L 4534 2893.67 L 4596 3003.67 L 4655 3116.67 L 4711 3230.67 L 4762 3347.67 L 4810 3464.67 "/>
<path transform="matrix(.12,0,0,-.12,0,842)" stroke-width="30" stroke-linecap="round" stroke-linejoin="round" fill="none" stroke="#000000" d="M 1359 2537.67 L 1341 2411.67 L 1326 2285.67 L 1316 2158.67 L 1309 2031.67 L 1307 1904.67 L 1309 1777.67 L 1315 1650.67 L 1324 1523.67 L 1338 1397.67 L 1356 1271.67 L 1379 1145.67 L 1405 1021.67 L 1435 897.668 L 1469 775.668 L 1507 653.668 L 1548 533.668 L 1594 415.668 L 1644 298.668 L 1761 345.668 L 1878 397.668 L 1992 452.668 L 2105 511.668 L 2215 574.668 L 2324 640.668 L 2430 710.668 L 2535 783.668 L 2636 859.668 L 2736 938.668 L 2832 1021.67 L 2926 1107.67 L 3017 1195.67 L 3106 1287.67 L 3191 1381.67 L 3273 1478.67 L 3352 1578.67 L 3428 1680.67 "/>
<path transform="matrix(.12,0,0,-.12,0,842)" stroke-width="30" stroke-linecap="round" stroke-linejoin="round" fill="none" stroke="#000000" d="M 332 1609.67 L 449 1560.67 L 568 1514.67 L 688 1472.67 L 809 1434.67 L 932 1400.67 L 1055 1370.67 L 1180 1344.67 L 1305 1322.67 L 1431 1304.67 L 1557 1290.67 L 1684 1280.67 L 1811 1274.67 L 1938 1273.67 L 2065 1275.67 L 2192 1281.67 L 2319 1292.67 L 2445 1306.67 L 2571 1325.67 "/>
<path transform="matrix(.12,0,0,-.12,0,842)" stroke-width="30" stroke-linecap="round" stroke-linejoin="round" fill="none" stroke="#000000" d="M 1714 3394.67 L 1612 3318.67 L 1512 3239.67 L 1415 3157.67 L 1321 3072.67 L 1230 2983.67 L 1141 2892.67 L 1055 2798.67 L 973 2702.67 L 893 2602.67 L 817 2500.67 L 744 2396.67 L 674 2290.67 L 608 2181.67 L 546 2071.67 L 487 1958.67 L 431 1843.67 L 380 1727.67 L 332 1609.67 "/>
<path transform="matrix(.12,0,0,-.12,0,842)" stroke-width="30" stroke-linecap="round" stroke-linejoin="round" fill="none" stroke="#000000" d="M 3498 298.668 L 3548 415.668 L 3594 533.668 L 3635 653.668 L 3673 775.668 L 3707 897.668 L 3737 1021.67 L 3764 1145.67 L 3786 1271.67 L 3804 1397.67 L 3818 1523.67 L 3828 1650.67 L 3833 1777.67 L 3835 1904.67 L 3833 2031.67 L 3826 2158.67 L 3816 2285.67 L 3801 2411.67 L 3783 2537.67 "/>
<path transform="matrix(.12,0,0,-.12,0,842)" stroke-width="30" stroke-linecap="round" stroke-linejoin="round" fill="none" stroke="#000000" d="M 1714 1680.67 L 1790 1578.67 L 1869 1478.67 L 1951 1381.67 L 2036 1287.67 L 2125 1195.67 L 2216 1107.67 L 2310 1021.67 L 2406 938.668 L 2506 859.668 L 2607 783.668 L 2712 710.668 L 2818 640.668 L 2927 574.668 L 3037 511.668 L 3150 452.668 L 3264 397.668 L 3381 345.668 L 3498 298.668 "/>
<path transform="matrix(.12,0,0,-.12,0,842)" stroke-width="30" stroke-linecap="round" stroke-linejoin="round" fill="none" stroke="#000000" d="M 2571 1325.67 L 2697 1306.67 L 2823 1292.67 L 2950 1281.67 L 3077 1275.67 L 3204 1273.67 L 3331 1274.67 L 3458 1280.67 L 3585 1290.67 L 3711 1304.67 L 3837 1322.67 L 3962 1344.67 L 4087 1370.67 L 4210 1400.67 L 4333 1434.67 L 4454 1472.67 L 4574 1514.67 L 4693 1560.67 L 4810 1609.67 L 4762 1727.67 L 4711 1843.67 L 4655 1958.67 L 4596 2071.67 L 4534 2181.67 L 4468 2290.67 L 4398 2396.67 L 4325 2500.67 L 4249 2602.67 L 4169 2702.67 L 4087 2798.67 L 4001 2892.67 L 3912 2983.67 L 3821 3072.67 L 3727 3157.67 L 3630 3239.67 L 3530 3318.67 L 3428 3394.67 "/>
<path transform="matrix(.12,0,0,-.12,0,842)" stroke-width="30" stroke-linecap="round" stroke-linejoin="round" fill="none" stroke="#000000" d="M 2106 3002.67 L 2015 2964.67 L 1926 2923.67 L 1839 2878.67 L 1753 2830.67 L 1670 2778.67 L 1588 2722.67 L 1509 2664.67 L 1433 2602.67 L 1359 2537.67 L 1433 2472.67 L 1509 2410.67 L 1588 2351.67 L 1670 2296.67 L 1753 2244.67 L 1839 2196.67 L 1926 2151.67 L 2015 2110.67 L 2106 2072.67 "/>
<path transform="matrix(.12,0,0,-.12,0,842)" stroke-width="30" stroke-linecap="round" stroke-linejoin="round" fill="none" stroke="#000000" d="M 3783 2537.67 L 3709 2602.67 L 3633 2664.67 L 3554 2722.67 L 3472 2778.67 L 3389 2830.67 L 3303 2878.67 L 3216 2923.67 L 3127 2964.67 L 3036 3002.67 "/>
<path transform="matrix(.12,0,0,-.12,0,842)" stroke-width="30" stroke-linecap="round" stroke-linejoin="round" fill="none" stroke="#000000" d="M 3036 2072.67 L 3127 2110.67 L 3216 2151.67 L 3303 2196.67 L 3389 2244.67 L 3472 2296.67 L 3554 2351.67 L 3633 2410.67 L 3709 2472.67 L 3783 2537.67 "/>
<path transform="matrix(.12,0,0,-.12,0,842)" stroke-width="30" stroke-linecap="round" stroke-linejoin="round" fill="none" stroke="#000000" d="M 2106 2072.67 L 2144 1981.67 L 2185 1892.67 L 2230 1804.67 L 2278 1719.67 L 2330 1635.67 L 2386 1554.67 L 2444 1475.67 L 2506 1399.67 L 2571 1325.67 L 2636 1399.67 L 2698 1475.67 L 2757 1554.67 L 2812 1635.67 L 2864 1719.67 L 2912 1804.67 L 2957 1892.67 L 2998 1981.67 L 3036 2072.67 "/>
<path transform="matrix(.12,0,0,-.12,0,842)" stroke-width="30" stroke-linecap="round" stroke-linejoin="round" fill="none" stroke="#000000" d="M 2571 3749.67 L 2506 3675.67 L 2444 3599.67 L 2386 3520.67 L 2330 3438.67 L 2278 3355.67 L 2230 3269.67 L 2185 3182.67 L 2144 3093.67 L 2106 3002.67 "/>
<path transform="matrix(.12,0,0,-.12,0,842)" stroke-width="30" stroke-linecap="round" stroke-linejoin="round" fill="none" stroke="#000000" d="M 3036 3002.67 L 2998 3093.67 L 2957 3182.67 L 2912 3269.67 L 2864 3355.67 L 2812 3438.67 L 2757 3520.67 L 2698 3599.67 L 2636 3675.67 L 2571 3749.67 "/>
<path transform="matrix(.12,0,0,-.12,0,842)" stroke-width="30" stroke-linecap="round" stroke-linejoin="round" fill="none" stroke="#000000" d="M 1714 3394.67 L 1731 3308.67 L 1751 3223.67 L 1775 3139.67 L 1802 3055.67 L 1832 2974.67 L 1866 2893.67 "/>
<path transform="matrix(.12,0,0,-.12,0,842)" stroke-width="30" stroke-linecap="round" stroke-linejoin="round" fill="none" stroke="#000000" d="M 2215 3242.67 L 2134 3276.67 L 2053 3306.67 L 1969 3333.67 L 1885 3357.67 L 1800 3377.67 L 1714 3394.67 "/>
<path transform="matrix(.12,0,0,-.12,0,842)" stroke-width="30" stroke-linecap="round" stroke-linejoin="round" fill="none" stroke="#000000" d="M 3276 2893.67 L 3310 2974.67 L 3340 3055.67 L 3367 3139.67 L 3391 3223.67 L 3411 3308.67 L 3428 3394.67 L 3342 3377.67 L 3257 3357.67 L 3173 3333.67 L 3090 3306.67 L 3008 3276.67 L 2927 3242.67 "/>
<path transform="matrix(.12,0,0,-.12,0,842)" stroke-width="30" stroke-linecap="round" stroke-linejoin="round" fill="none" stroke="#000000" d="M 1866 2181.67 L 1832 2100.67 L 1802 2018.67 L 1775 1935.67 L 1751 1851.67 L 1731 1766.67 L 1714 1680.67 L 1800 1697.67 L 1885 1717.67 L 1969 1740.67 L 2053 1768.67 L 2134 1798.67 L 2215 1832.67 "/>
<path transform="matrix(.12,0,0,-.12,0,842)" stroke-width="30" stroke-linecap="round" stroke-linejoin="round" fill="none" stroke="#000000" d="M 3428 1680.67 L 3411 1766.67 L 3391 1851.67 L 3367 1935.67 L 3340 2018.67 L 3310 2100.67 L 3276 2181.67 "/>
<path transform="matrix(.12,0,0,-.12,0,842)" stroke-width="30" stroke-linecap="round" stroke-linejoin="round" fill="none" stroke="#000000" d="M 2927 1832.67 L 3008 1798.67 L 3090 1768.67 L 3173 1740.67 L 3257 1717.67 L 3342 1697.67 L 3428 1680.67 "/>
<g transform="matrix(.12,0,0,.12,253.56,482.51963)">
</g>
    
<!-- <path transform="matrix(.12,0,0,-.12,0,842)" stroke-width="60" stroke-linecap="round" stroke-linejoin="round" fill="none" stroke="#000000" d="M 2113 2079.67 L 3029 2079.67 L 3029 2995.67 L 2113 2995.67 Z "/>
 --></g>
<!-- 
    transform="matrix(0,0,0,0,0,0)"
    
-->
    <g transform="translate(260 488) scale(.33 0.33)">
        <path d="M147.998,0C66.392,0,0,66.392,0,147.998c0,81.606,66.392,147.998,147.998,147.998c81.606,0,147.998-66.392,147.998-147.998
		C295.996,66.392,229.604,0,147.998,0z M147.998,279.996c-36.257,0-69.143-14.696-93.023-38.44
		c-9.536-9.482-17.631-20.41-23.934-32.42C21.442,190.847,16,170.047,16,147.998C16,75.214,75.214,16,147.998,16
		c34.523,0,65.987,13.328,89.533,35.102c12.208,11.288,22.289,24.844,29.558,39.996c8.27,17.239,12.907,36.538,12.907,56.9
		C279.996,220.782,220.782,279.996,147.998,279.996z" />
        <path d="M163.638,187.607c17.554,3.671,33.322,13.54,44.4,27.789l12.631-9.82c-13.402-17.24-32.494-29.184-53.756-33.631
		c-34.195-7.146-70.146,6.052-91.587,33.631l12.633,9.82C105.675,192.607,135.382,181.697,163.638,187.607z" />
        <circle cx="98.666" cy="114.998" r="16" />
        <circle cx="197.666" cy="114.998" r="16" />
    </g>
    

</svg>
