<?xml version="1.0" standalone="no"?>
<!DOCTYPE svg PUBLIC "-//W3C//DTD SVG 20010904//EN"
 "http://www.w3.org/TR/2001/REC-SVG-20010904/DTD/svg10.dtd">
<svg version="1.0" xmlns="http://www.w3.org/2000/svg"
 width="700.000000pt" height="700.000000pt" viewBox="0 0 700.000000 700.000000"
 preserveAspectRatio="xMidYMid meet">
<metadata>
Created by potrace 1.11, written by Peter Selinger 2001-2013
</metadata>
<g transform="translate(0.000000,700.000000) scale(0.100000,-0.100000)"
fill="#000000" stroke="none">
<path d="M2112 6804 c-12 -8 -22 -20 -22 -26 0 -9 -15 -46 -66 -163 -67 -156
-196 -557 -244 -760 -12 -49 -23 -98 -26 -107 -7 -29 -13 -58 -34 -163 -27
-132 -27 -136 -35 -189 -8 -54 -16 -61 -75 -70 -77 -10 -112 -17 -200 -36 -47
-10 -96 -21 -110 -23 -63 -12 -324 -81 -458 -123 -301 -93 -624 -220 -642
-254 -17 -31 196 -503 347 -770 78 -138 169 -283 267 -428 81 -120 108 -167
101 -177 -319 -459 -489 -764 -680 -1222 -35 -84 -40 -106 -31 -123 10 -20 82
-54 246 -116 36 -13 74 -29 85 -34 47 -24 428 -143 572 -179 209 -53 325 -78
478 -103 39 -6 75 -15 81 -19 6 -5 19 -55 29 -111 9 -57 30 -161 47 -233 16
-71 31 -141 34 -155 3 -14 23 -90 46 -170 100 -356 262 -788 302 -803 32 -12
417 157 678 299 194 105 563 333 588 363 19 23 95 62 106 55 94 -66 324 -220
374 -250 276 -166 510 -287 770 -397 180 -75 191 -79 207 -69 21 13 132 287
203 502 47 139 115 368 124 413 3 12 16 69 30 127 13 58 27 116 30 130 2 14 9
45 15 70 11 49 16 78 28 149 4 25 8 49 9 54 1 4 2 13 3 20 0 7 13 14 29 15 15
1 50 6 77 12 28 5 66 12 85 15 84 14 378 83 505 119 269 75 725 246 769 287
19 17 19 19 1 66 -80 213 -269 602 -400 823 -70 117 -192 305 -272 418 l-45
62 45 63 c170 239 339 523 484 812 94 190 206 461 199 483 -7 20 -90 58 -300
139 -190 72 -587 195 -706 217 -37 7 -61 13 -105 25 -22 5 -53 12 -70 15 -16
3 -75 14 -130 25 -55 11 -115 22 -132 23 -18 1 -33 7 -34 13 0 5 -2 17 -4 25
-1 8 -6 35 -10 60 -17 116 -103 490 -135 595 -116 372 -171 527 -258 727 -34
77 -39 77 -219 2 -365 -151 -785 -386 -1135 -634 l-47 -33 -48 35 c-215 156
-500 328 -783 473 -101 51 -494 225 -510 225 -3 0 -16 -7 -28 -16z m198 -149
c142 -60 408 -190 498 -244 29 -17 55 -31 58 -31 26 0 529 -329 529 -346 0 -6
-47 -48 -105 -94 -103 -82 -121 -98 -225 -190 -70 -62 -227 -213 -296 -285
l-58 -60 -168 -1 c-212 -2 -443 -13 -568 -28 -27 -3 -75 -8 -105 -11 -30 -3
-67 -8 -82 -11 -22 -4 -26 -2 -22 13 2 10 20 97 39 194 80 403 174 709 348
1131 6 15 13 25 16 24 4 -2 67 -29 141 -61z m2519 -3 c86 -206 224 -610 246
-721 2 -9 14 -61 28 -116 30 -121 62 -268 77 -352 6 -35 13 -74 16 -88 4 -25
3 -26 -28 -20 -32 6 -47 8 -178 20 -36 4 -78 9 -95 11 -54 6 -337 17 -486 18
l-146 1 -174 167 c-178 171 -370 338 -471 411 -32 23 -58 45 -58 48 0 7 239
170 355 242 178 109 534 299 630 335 17 6 75 31 130 56 55 25 107 45 115 45 9
1 24 -22 39 -57z m-1064 -902 c89 -76 156 -138 318 -293 27 -26 47 -50 43 -54
-3 -3 -23 -7 -43 -8 -122 -7 -258 -17 -263 -20 -3 -2 -41 -6 -85 -10 -44 -4
-82 -9 -85 -10 -9 -5 -134 -19 -170 -19 -38 0 -155 12 -180 19 -8 2 -43 7 -77
10 -35 4 -75 9 -90 11 -29 3 -192 15 -255 18 -21 1 -40 4 -43 7 -3 3 41 50 98
105 194 187 286 268 446 392 l104 80 91 -71 c50 -39 136 -110 191 -157z
m-1153 -446 c-4 -8 -23 -31 -43 -51 -19 -21 -57 -65 -84 -98 -28 -33 -52 -62
-55 -65 -3 -3 -21 -25 -40 -50 -19 -25 -37 -47 -40 -50 -3 -3 -35 -45 -70 -93
-50 -68 -87 -105 -157 -158 -115 -86 -313 -249 -373 -305 -24 -23 -47 -41 -50
-39 -10 6 0 373 14 525 2 19 7 72 10 117 4 46 9 91 10 100 2 10 7 42 11 71 4
28 10 52 13 53 4 0 14 2 22 3 17 4 95 13 173 22 28 3 66 7 82 9 17 2 91 7 165
11 74 4 136 7 137 8 1 0 65 2 142 2 118 2 140 0 133 -12z m293 1 c72 -4 144
-8 160 -10 17 -2 58 -7 92 -10 34 -3 71 -8 83 -10 12 -2 49 -7 83 -10 34 -4
64 -8 66 -11 2 -2 -19 -29 -46 -61 -116 -137 -362 -496 -363 -531 0 -4 -8 -17
-18 -30 l-17 -22 -65 25 c-158 63 -403 136 -538 161 -8 1 -15 4 -17 6 -9 8
218 293 331 417 27 29 53 60 57 68 9 14 47 33 57 28 3 -1 64 -6 135 -10z
m1396 -79 c128 -143 338 -402 339 -417 0 -4 -42 -17 -92 -29 -139 -34 -300
-83 -422 -129 -60 -23 -110 -40 -111 -39 -5 7 -121 204 -125 213 -15 32 -158
232 -214 300 -37 44 -75 92 -86 106 l-20 26 68 8 c37 4 76 8 87 10 11 2 54 7
95 11 41 3 89 8 105 10 17 2 84 6 150 10 66 3 122 8 123 9 10 9 37 -14 103
-89z m499 79 c52 -4 109 -8 125 -10 17 -2 57 -6 90 -10 33 -3 89 -10 125 -15
36 -5 69 -10 73 -10 5 0 6 -3 3 -8 -2 -4 -1 -28 4 -52 9 -50 16 -116 35 -325
3 -33 8 -156 11 -274 l6 -214 -34 29 c-167 141 -289 241 -378 308 -80 60 -120
99 -165 160 -62 84 -277 350 -304 376 -9 8 -24 25 -35 37 l-18 22 183 -4 c101
-2 227 -7 279 -10z m-3145 -102 c-12 -92 -14 -109 -20 -193 -4 -47 -9 -96 -11
-110 -3 -14 -7 -153 -10 -310 l-6 -285 -61 -61 c-174 -170 -337 -352 -491
-544 -37 -47 -71 -86 -75 -87 -6 -2 -27 26 -131 182 -64 96 -200 314 -200 321
0 2 -14 27 -31 56 -43 73 -200 386 -239 478 -17 41 -40 93 -49 115 -38 83 -38
83 16 106 26 11 57 24 68 30 112 51 565 200 714 234 9 2 54 13 101 25 91 23
243 56 300 65 19 4 53 10 75 15 22 4 44 8 48 9 5 1 5 -20 2 -46z m3775 22
c377 -67 878 -216 1181 -352 l57 -25 -24 -58 c-13 -32 -37 -88 -54 -125 -16
-36 -30 -68 -30 -71 0 -11 -172 -348 -230 -450 -117 -206 -325 -524 -346 -531
-5 -1 -25 19 -43 45 -35 46 -218 267 -256 309 -11 12 -90 94 -175 182 l-154
161 -2 207 c-2 215 -10 373 -27 528 -3 28 -9 77 -12 110 -3 33 -8 67 -11 76
-5 18 -10 18 126 -6z m-1797 -187 c76 -97 190 -266 250 -369 51 -88 158 -301
154 -306 -3 -2 -28 10 -56 28 -204 125 -497 166 -746 103 -73 -18 -194 -68
-255 -106 -25 -15 -46 -23 -48 -18 -5 13 123 256 196 374 75 123 175 260 272
379 l81 98 35 -40 c20 -22 72 -86 117 -143z m1008 -444 c-47 -190 -139 -466
-161 -479 -4 -3 -34 8 -67 24 -32 15 -95 43 -140 62 l-83 34 -29 71 c-17 39
-46 104 -66 144 -19 41 -32 77 -27 81 11 12 209 84 312 114 94 28 283 74 287
70 2 -1 -10 -55 -26 -121z m-2171 82 c74 -19 187 -53 250 -76 63 -23 130 -46
148 -52 17 -6 32 -15 32 -19 0 -4 -20 -52 -44 -106 -24 -54 -53 -119 -64 -145
-13 -30 -28 -49 -43 -53 -13 -4 -78 -32 -143 -61 -90 -41 -122 -51 -128 -42
-26 42 -138 381 -152 463 -3 17 -10 46 -16 65 -21 73 -24 72 160 26z m-225
-128 c38 -150 57 -213 117 -373 34 -89 39 -110 27 -117 -241 -138 -441 -276
-592 -408 -28 -24 -41 -26 -43 -5 -1 16 -16 128 -20 147 -6 36 -19 193 -30
373 -6 108 -6 109 18 130 14 11 61 52 105 90 145 128 373 309 380 302 2 -3 19
-65 38 -139z m2638 47 c144 -112 205 -163 309 -257 72 -66 76 -72 73 -107 -2
-20 -7 -85 -10 -146 -4 -60 -8 -123 -9 -140 -8 -77 -18 -162 -21 -185 -2 -14
-7 -50 -10 -80 -4 -30 -8 -56 -9 -58 -2 -1 -38 27 -82 64 -145 120 -377 279
-512 349 -40 21 -52 32 -47 44 64 158 119 325 156 471 24 98 27 111 28 128 1
6 4 12 7 12 3 0 60 -43 127 -95z m-1204 -179 c114 -25 320 -121 358 -168 9
-11 -89 -13 -548 -12 -308 1 -562 4 -565 7 -7 7 119 85 193 118 71 32 162 58
232 66 25 3 47 7 49 8 10 9 217 -5 281 -19z m-2061 -288 c2 -93 24 -304 49
-488 9 -64 9 -170 0 -220 -18 -101 -48 -413 -51 -522 0 -10 -3 -18 -6 -18 -6
0 -171 171 -266 275 -62 68 -177 206 -244 292 l-63 83 26 37 c92 130 522 613
547 613 4 0 8 -24 8 -52z m3769 23 c203 -206 279 -291 439 -489 101 -125 102
-126 86 -152 -21 -32 -223 -280 -277 -340 -79 -87 -278 -290 -282 -286 -2 2
-6 34 -8 72 -10 135 -16 210 -20 249 -3 22 -7 60 -10 85 -3 25 -10 79 -15 120
-6 41 -13 88 -15 103 -2 15 3 69 10 120 8 51 17 118 20 150 4 32 8 66 10 75 1
9 6 64 10 122 5 58 9 119 11 135 1 17 3 38 3 48 1 23 5 22 38 -12z m-2744 -88
c-62 -91 -124 -254 -143 -376 -14 -89 -14 -225 0 -310 20 -127 84 -297 142
-379 11 -16 17 -28 15 -28 -11 0 -219 107 -307 158 -171 99 -385 251 -515 366
l-40 36 35 32 c98 90 263 213 420 312 91 57 386 215 403 216 5 0 0 -12 -10
-27z m132 -533 c0 -308 -2 -560 -5 -560 -3 0 -20 22 -38 49 -182 269 -206 624
-61 916 32 63 90 155 99 155 3 0 5 -252 5 -560z m1489 460 c171 -291 163 -669
-19 -951 -24 -38 -47 -69 -50 -69 -3 0 -5 253 -5 563 l1 562 20 -24 c11 -14
35 -50 53 -81z m206 22 c57 -30 118 -63 135 -73 16 -11 37 -22 45 -26 69 -31
380 -256 481 -347 40 -37 41 -40 23 -53 -10 -7 -40 -31 -65 -53 -134 -114
-353 -266 -509 -353 -96 -53 -264 -136 -269 -132 -2 2 6 16 17 32 50 72 122
259 138 363 15 100 11 252 -10 365 -15 81 -74 231 -119 303 -15 23 -27 44 -27
47 0 7 42 -12 160 -73z m-3439 -619 c24 -32 46 -60 49 -63 3 -3 25 -30 50 -60
25 -30 47 -57 50 -60 3 -3 38 -43 79 -90 41 -47 137 -148 213 -225 l138 -140
1 -190 c1 -104 2 -206 4 -225 1 -19 5 -93 9 -164 4 -71 9 -137 11 -145 1 -9 6
-45 9 -81 4 -36 9 -82 12 -103 4 -28 3 -36 -8 -33 -7 3 -29 7 -48 10 -19 3
-46 8 -60 11 -54 11 -137 27 -165 31 -16 3 -100 23 -185 45 -85 22 -165 42
-178 45 -119 25 -677 227 -706 254 -4 5 15 63 44 132 140 328 335 686 518 953
101 147 106 154 113 155 4 0 26 -26 50 -57z m5065 -99 c188 -278 367 -603 505
-924 l67 -155 -60 -28 c-295 -137 -884 -309 -1247 -363 -44 -7 -58 -5 -55 6 1
3 5 37 9 75 3 39 8 84 10 100 18 140 27 307 29 540 l2 211 115 116 c104 105
223 232 279 298 88 103 107 125 120 144 8 12 19 26 25 32 5 6 26 31 45 57 19
25 39 45 45 43 5 -1 55 -70 111 -152z m-4286 105 c3 -3 50 -41 105 -84 107
-84 307 -217 418 -279 37 -20 67 -41 67 -46 0 -4 -9 -30 -21 -57 -46 -108
-148 -444 -163 -541 -3 -20 -17 -15 -81 32 -74 55 -317 257 -386 321 l-51 48
6 121 c4 67 9 137 11 156 3 19 7 62 10 95 6 76 24 223 31 254 5 23 5 23 27 5
12 -11 24 -22 27 -25z m3409 -46 c23 -183 27 -225 36 -388 3 -60 8 -124 10
-142 4 -26 -1 -36 -28 -59 -17 -14 -57 -50 -88 -78 -31 -28 -67 -60 -80 -71
-145 -121 -310 -247 -315 -242 -2 1 -6 18 -9 36 -3 19 -8 37 -10 41 -2 3 -6
17 -8 31 -18 93 -108 377 -149 468 -22 50 -29 41 72 98 153 86 466 308 525
373 10 11 21 20 25 20 4 0 12 -39 19 -87z m-2634 -446 c50 -24 112 -52 139
-62 44 -17 51 -24 73 -74 13 -31 42 -95 64 -142 21 -47 39 -90 39 -96 0 -5
-15 -14 -32 -20 -18 -6 -85 -30 -148 -52 -110 -40 -370 -111 -404 -111 -21 0
-21 3 18 159 47 185 137 441 155 441 3 0 47 -20 96 -43z m1937 -54 c39 -107
105 -313 112 -353 2 -14 11 -53 19 -87 15 -61 14 -63 -4 -63 -53 0 -424 110
-551 164 -43 18 -44 8 19 146 22 47 47 103 57 125 15 35 25 44 84 68 37 15 99
43 137 62 39 18 75 34 81 34 5 1 26 -43 46 -96z m-487 -35 c9 -9 -91 -73 -178
-113 -253 -117 -577 -104 -817 33 -58 34 -120 78 -115 83 6 7 1104 4 1110 -3z
m-998 -177 c72 -36 193 -77 255 -86 184 -29 267 -26 426 10 81 19 203 68 266
106 26 17 50 28 52 26 7 -7 -129 -267 -201 -382 -91 -148 -220 -325 -307 -420
-16 -16 -28 -33 -28 -37 0 -26 -37 2 -91 70 -35 42 -66 79 -69 82 -13 12 -113
153 -173 245 -72 111 -183 309 -222 398 l-26 59 28 -20 c16 -11 56 -34 90 -51z
m-1285 -16 c24 -22 68 -60 98 -85 30 -25 57 -47 60 -51 3 -3 73 -58 156 -122
84 -64 159 -127 167 -140 52 -80 351 -446 377 -462 6 -3 10 -10 10 -14 0 -9
-288 -7 -435 4 -118 8 -113 8 -330 31 -79 8 -105 15 -105 27 0 7 -5 41 -10 77
-5 36 -12 97 -15 135 -4 39 -8 86 -10 105 -15 157 -25 542 -14 538 4 -2 27
-21 51 -43z m3514 -167 c-4 -117 -9 -238 -11 -268 -12 -140 -16 -190 -20 -212
-2 -13 -6 -50 -10 -83 -3 -33 -8 -68 -11 -77 -6 -21 -30 -26 -209 -43 -33 -3
-78 -8 -100 -10 -167 -18 -555 -28 -555 -14 0 4 6 14 13 21 7 7 37 42 67 78
30 36 58 67 61 70 8 7 187 235 224 285 39 53 33 48 170 152 123 93 230 181
325 266 30 26 56 47 58 47 2 0 1 -96 -2 -212z m-2271 -90 c91 -159 239 -372
352 -505 24 -28 40 -54 35 -57 -5 -3 -33 -8 -63 -11 -30 -3 -65 -8 -79 -10
-14 -2 -54 -7 -90 -10 -36 -4 -85 -9 -110 -11 -25 -3 -102 -7 -171 -11 l-126
-5 -44 48 c-24 26 -51 55 -59 64 -46 49 -227 271 -294 361 l-26 37 92 22 c160
37 372 104 463 146 28 12 55 23 62 23 6 1 32 -36 58 -81z m1190 22 c77 -29
210 -70 295 -92 85 -22 157 -42 159 -44 8 -7 -220 -288 -376 -463 l-39 -44
-135 7 c-74 3 -152 8 -174 11 -22 2 -69 7 -105 10 -65 7 -90 10 -188 23 l-54
7 27 30 c106 121 284 374 371 528 34 61 54 86 64 83 8 -2 78 -28 155 -56z
m-595 -674 c71 -13 388 -46 487 -50 74 -4 83 9 -142 -201 -184 -172 -430 -375
-455 -375 -11 0 -187 139 -295 233 -118 103 -356 329 -352 334 3 2 26 6 53 8
47 4 161 13 234 20 75 7 166 16 190 20 14 2 45 7 70 10 25 4 47 8 49 10 4 5
124 -2 161 -9z m-1660 -26 c202 -23 381 -33 595 -33 l180 0 135 -132 c188
-184 304 -287 462 -412 l107 -84 -67 -46 c-190 -131 -462 -303 -478 -303 -3 0
-18 -8 -32 -19 -102 -72 -654 -323 -671 -305 -16 16 -138 334 -186 484 -66
207 -163 588 -181 711 -2 15 -8 46 -13 70 -6 24 -11 55 -11 68 0 21 3 23 33
18 17 -3 75 -11 127 -17z m3265 -2 c-2 -13 -9 -52 -15 -88 -9 -53 -25 -134
-55 -270 -51 -234 -174 -625 -266 -847 -23 -54 -43 -106 -46 -116 -7 -24 -21
-20 -195 54 -276 119 -642 319 -878 481 -158 108 -179 123 -180 129 0 3 21 21
48 40 26 18 56 41 67 50 11 10 54 45 95 79 108 90 237 208 369 340 l116 115
170 1 c158 1 366 10 460 19 99 10 164 17 220 24 98 13 96 14 90 -11z"/>
</g>
</svg>
